<svg height="73" viewBox="0 0 73 73" width="73" xmlns="http://www.w3.org/2000/svg" xmlns:xlink="http://www.w3.org/1999/xlink"><linearGradient id="a"><stop offset="0" stop-color="#ffc200"/><stop offset=".268" stop-color="#fb0"/><stop offset=".659" stop-color="#ffa801"/><stop offset="1" stop-color="#ff9102"/></linearGradient><linearGradient id="b" x1="42.077512%" x2="128.117561%" xlink:href="#a" y1="36.782824%" y2="180.179814%"/><linearGradient id="c"><stop offset="0" stop-color="#ffc200" stop-opacity="0"/><stop offset=".203" stop-color="#fb0" stop-opacity=".203"/><stop offset=".499" stop-color="#ffa700" stop-opacity=".499"/><stop offset=".852" stop-color="#f80" stop-opacity=".852"/><stop offset="1" stop-color="#ff7800"/></linearGradient><linearGradient id="d" x1="127.505713%" x2="12.867552%" xlink:href="#c" y1="114.896472%" y2=".25931%"/><linearGradient id="e" x1="37.733942%" x2="90.276113%" xlink:href="#a" y1="-53.116789%" y2="388.511475%"/><linearGradient id="f" x1="35.249688%" x2="92.134584%" xlink:href="#a" y1="58.343971%" y2="118.032814%"/><linearGradient id="g" x1="94.77811%" x2="-4.556749%" xlink:href="#c" y1="-13.559528%" y2="115.164828%"/><linearGradient id="h" x1="167.478611%" x2="52.029177%" xlink:href="#c" y1="129.882793%" y2="14.494178%"/><linearGradient id="i" x1="29.164587%" x2="70.628543%" y1=".342428%" y2="99.115235%"><stop offset="0" stop-color="#d63305"/><stop offset=".366" stop-color="#cf3004"/><stop offset=".899" stop-color="#bc2602"/><stop offset="1" stop-color="#b72401"/></linearGradient><g fill="none" fill-rule="nonzero"><rect fill="#fff" height="71" rx="14" stroke="#a35f0a" stroke-width="2" width="71" x="1" y="1"/><g transform="translate(15 13)"><circle cx="21.647979" cy="41.690212" fill="url(#b)" r="5.275706"/><path d="m21.6479788 36.4147817c-2.7479756 0-5.0042748 2.1012744-5.2520393 4.7844881l5.7431653 5.7432571c2.6832138-.2478562 4.7844882-2.5040637 4.7844882-5.2520393 0-2.913733-2.361973-5.2757059-5.2756142-5.2757059z" fill="url(#d)"/><path d="m38.9358156 32.4902685h-34.57567352c-2.36142257 0-4.27565814 1.9142356-4.27565814 4.2757499 0 2.3614226 1.91423557 4.2757499 4.27565814 4.2757499h34.57567352c2.3614226 0 4.2757499-1.9143273 4.2757499-4.2757499-.0000918-2.3615143-1.9143273-4.2757499-4.2757499-4.2757499z" fill="url(#e)"/><path d="m36.4609222 29.2643762v-8.5710384c0-6.9317196-4.7610051-12.74900335-11.1907745-14.36520598.3667392-.62404373.5790957-1.351101.5790957-2.12695898-.0000917-2.31996031-1.8813042-4.20117284-4.2012646-4.20117284-2.3199603 0-4.2011728 1.88121253-4.2011728 4.20117284 0 .77594971.2123565 1.50291525.5790957 2.12695898-6.4299528 1.61620263-11.18967371 7.43357808-11.18967371 14.36520598v8.5710384c0 1.8554362-1.50419949 3.3597274-3.3596357 3.3597274h36.34277311c-1.8555279 0-3.3584432-1.5042912-3.3584432-3.3597274zm-14.8129434-23.38389004c-.9277639 0-1.6805058-.75145762-1.6805058-1.67922159 0-.9290482.7527419-1.68050583 1.6805058-1.68050583.927764 0 1.6805059.75145763 1.6805059 1.68050583 0 .92776397-.7527419 1.67922159-1.6805059 1.67922159z" fill="url(#f)"/><path d="m.137596 37.6157196c.32280022 2.0416494 2.09017499 3.6029054 4.22254608 3.4098123h34.57567352c2.1324628.1930931 3.8997459-1.3681629 4.2225461-3.4098123z" fill="url(#g)"/><path d="m36.4609222 23.1265855v4.9398799l-6.5778227-6.5778227.0239417-.001376c.3381193-.0186213.6686248.0874193.9426244.2863832 1.2493716.9070328 2.7861355 1.4417309 4.44802 1.4417309.3963682.0000917.7836551-.0308215 1.1632366-.0887953z" fill="url(#h)"/><circle cx="35.29842" cy="15.633841" fill="url(#i)" r="7.913788"/><path d="m33.5134324 12.4642714c0-.2566625.1036557-.4592038.3110587-.6072571l1.5404331-1.4810833c.1085174-.1085174.2418938-.1629137.399854-.1629137.177774 0 .3380275.0469661.4814025.1407149.1430081.0939322.2147415.2198784.2147415.3776551v9.8051828c0 .1580519-.0791636.2839064-.2369403.3776551-.1580519.0939322-.3406877.1407149-.547999.1407149-.21731 0-.4024225-.0467827-.5554292-.1407149-.1531902-.0937487-.2295101-.2196949-.2295101-.3776551v-8.2351207l-.51837.6517464c-.098794.0987939-.2073113.1480533-.3258274.1480533-.148145 0-.2740912-.0665965-.3776551-.1998811-.1039309-.1334681-.1557587-.2790447-.1557587-.4370966z" fill="#fff"/></g></g></svg>